<?xml version="1.0" standalone="no"?>
<!DOCTYPE svg PUBLIC "-//W3C//DTD SVG 20010904//EN"
 "http://www.w3.org/TR/2001/REC-SVG-20010904/DTD/svg10.dtd">
<svg version="1.0" xmlns="http://www.w3.org/2000/svg"
 width="1500.000000pt" height="1500.000000pt" viewBox="0 0 1500.000000 1500.000000"
 preserveAspectRatio="xMidYMid meet">
<metadata>
Created by potrace 1.14, written by Peter Selinger 2001-2017
</metadata>
<g transform="translate(0.000000,1500.000000) scale(0.100000,-0.100000)"
fill="#000000" stroke="none">
<path d="M7208 14244 c-2 -1 -66 -5 -143 -9 -77 -4 -143 -9 -146 -10 -3 -2
-42 -7 -88 -10 -45 -3 -103 -10 -129 -15 -26 -5 -54 -8 -62 -7 -16 2 -96 -9
-175 -23 -27 -5 -77 -14 -110 -20 -280 -48 -637 -132 -767 -179 -23 -8 279
-220 337 -237 38 -11 110 -27 341 -77 l101 -21 139 64 c76 35 197 92 267 127
71 35 133 63 139 63 12 0 178 50 335 101 99 32 98 32 258 207 l49 53 -172 -2
c-94 -1 -173 -3 -174 -5z"/>
<path d="M7508 14138 c-53 -62 -105 -123 -115 -135 -12 -15 -48 -31 -108 -48
-300 -86 -442 -142 -787 -310 -107 -52 -124 -64 -200 -144 -57 -60 -106 -125
-154 -207 -39 -65 -117 -194 -173 -285 -55 -91 -101 -171 -101 -177 0 -6 -10
-22 -22 -36 -13 -13 -119 -192 -237 -398 -231 -402 -582 -977 -607 -993 -17
-12 -34 8 -28 34 7 28 94 763 94 793 0 15 40 123 89 240 106 252 177 428 197
482 l15 40 -23 -20 c-39 -34 -314 -283 -490 -442 -100 -91 -213 -183 -285
-231 -185 -123 -217 -152 -444 -391 -116 -124 -219 -225 -228 -225 -34 0 -19
34 47 100 81 83 155 167 127 144 -11 -8 -68 -55 -128 -103 -70 -57 -113 -86
-123 -82 -8 3 -14 12 -12 20 5 23 508 422 637 506 64 42 143 95 175 119 71 53
661 585 763 689 67 67 475 599 476 618 0 9 -91 78 -255 190 l-97 66 -103 -35
c-251 -87 -389 -139 -480 -180 -29 -13 -64 -28 -78 -32 -60 -18 -398 -179
-497 -236 -22 -13 -101 -87 -174 -164 -73 -77 -175 -184 -227 -238 -63 -67
-98 -97 -108 -93 -9 3 -14 12 -12 20 2 8 82 96 178 197 123 128 164 177 140
164 -96 -49 -206 -123 -285 -191 -65 -55 -94 -74 -109 -70 -26 7 -115 -53
-349 -232 -45 -35 -94 -71 -109 -80 -14 -10 -96 -78 -181 -152 l-154 -135 -17
-135 c-9 -74 -21 -139 -26 -144 -12 -12 -42 13 -36 30 9 25 28 185 22 191 -6
7 -307 -294 -421 -422 -180 -202 -350 -414 -470 -585 -13 -19 -47 -66 -74
-105 -28 -38 -69 -101 -93 -139 -24 -37 -55 -87 -69 -110 -86 -137 -159 -259
-157 -261 2 -2 108 57 236 131 128 74 237 134 241 134 20 0 19 -31 -2 -46 -12
-8 -134 -79 -271 -157 l-250 -142 -43 -80 c-23 -44 -50 -96 -59 -115 -9 -19
-40 -84 -70 -145 -29 -60 -67 -141 -83 -180 -16 -38 -57 -135 -90 -215 -69
-160 -153 -404 -201 -580 -17 -63 -35 -128 -40 -145 -5 -16 -17 -59 -26 -95
-8 -36 -22 -92 -31 -125 -8 -33 -19 -80 -24 -105 -5 -25 -16 -76 -24 -115 -23
-110 -47 -238 -50 -265 -2 -14 -6 -47 -10 -75 -28 -207 -41 -351 -33 -360 5
-6 73 -9 172 -7 122 3 166 1 171 -9 16 -25 -24 -35 -142 -37 -134 -3 -201 -10
-209 -23 -14 -23 -23 -153 -30 -400 -6 -243 -5 -268 11 -292 16 -26 17 -61 1
-97 -4 -10 23 -44 88 -109 78 -78 102 -96 142 -106 27 -8 141 -38 254 -69 113
-30 306 -91 430 -134 124 -44 226 -80 226 -79 1 1 -5 65 -12 141 -7 76 -14
227 -16 335 -3 190 -2 196 17 196 19 0 20 -9 27 -225 4 -124 14 -283 22 -355
11 -98 11 -133 3 -141 -9 -9 -72 10 -247 72 -186 66 -503 162 -665 200 -29 7
216 -229 396 -382 314 -266 632 -500 944 -696 l110 -69 6 93 c4 51 10 202 14
336 7 224 6 246 -11 277 -16 31 -16 35 -1 58 14 22 15 36 5 119 -15 117 -15
118 11 388 17 180 25 228 39 241 55 54 395 329 405 329 7 0 46 -27 87 -59 67
-53 75 -62 76 -94 1 -33 -1 -35 -18 -26 -16 8 -58 -10 -231 -101 -116 -61
-218 -109 -227 -108 -44 9 -2 40 188 139 111 58 207 110 212 115 5 5 -10 23
-37 43 -42 32 -46 34 -69 20 -42 -25 -336 -273 -350 -294 -7 -11 -19 -100 -29
-205 -9 -102 -18 -203 -20 -225 -2 -22 3 -87 11 -145 20 -145 18 -144 209
-164 83 -9 171 -16 197 -16 56 0 47 21 79 -200 12 -85 25 -165 30 -177 l9 -23
304 0 305 0 20 68 c51 177 51 174 6 294 -28 75 -42 99 -75 126 -22 19 -40 40
-40 47 0 29 22 25 69 -11 47 -35 52 -43 91 -156 l43 -120 -34 -134 -33 -134
18 -73 c18 -70 18 -76 1 -152 -15 -68 -33 -105 -117 -245 -55 -91 -102 -168
-106 -172 -4 -4 -36 -10 -71 -14 -58 -6 -63 -5 -59 12 3 18 22 27 79 39 40 7
206 290 229 389 17 71 16 84 -12 159 l-10 27 -308 0 -307 0 -24 -24 c-13 -13
-46 -57 -74 -97 -27 -41 -85 -125 -128 -187 -45 -64 -76 -117 -71 -122 5 -4
81 -48 169 -96 514 -281 1222 -563 1832 -729 92 -25 176 -48 186 -51 11 -4 17
0 17 10 0 9 15 39 34 68 18 29 76 127 128 218 53 91 114 197 137 236 22 39 41
77 41 85 -1 43 10 43 -590 -22 -159 -17 -175 -17 -175 6 0 18 19 21 290 51
160 18 315 35 347 39 l56 8 -41 31 c-37 28 -151 108 -403 283 -71 49 -99 80
-194 217 -51 74 -134 182 -143 185 -5 2 -17 12 -26 23 -21 26 -104 68 -134 68
-29 0 -47 17 -47 45 0 33 -30 53 -85 57 -54 3 -67 22 -30 42 11 6 22 12 24 13
6 4 -37 55 -433 511 -347 400 -395 462 -342 450 8 -2 75 -74 150 -160 75 -87
197 -229 272 -315 75 -87 188 -218 251 -291 64 -73 133 -147 154 -164 22 -17
39 -37 39 -43 0 -23 40 -50 82 -54 4 -1 14 -14 22 -30 9 -16 32 -38 52 -50
l37 -22 -6 53 c-11 92 -16 119 -32 175 -16 54 -34 97 -217 513 -50 113 -131
297 -180 410 -49 112 -107 239 -127 281 l-38 76 8 114 c4 63 13 278 20 478
l12 364 94 91 c52 50 156 156 231 236 75 80 161 165 192 190 30 25 165 141
299 258 201 176 246 211 258 201 8 -8 12 -21 9 -33 -10 -35 -106 -724 -106
-757 0 -16 7 -41 16 -54 14 -22 14 -27 -1 -57 -15 -31 -15 -40 1 -138 l16
-105 -67 -90 c-87 -116 -82 -112 -104 -98 -21 13 -4 53 -181 -418 l-62 -167
-122 -6 c-180 -10 -441 -28 -444 -30 -2 -3 155 -364 206 -476 12 -25 53 -119
93 -210 39 -91 105 -241 146 -335 95 -214 130 -326 132 -425 3 -86 -7 -68 148
-282 l114 -156 257 -180 c141 -99 272 -189 291 -200 19 -12 41 -37 52 -61 l18
-42 -163 -282 c-90 -155 -173 -296 -184 -314 l-20 -31 77 -21 c295 -78 1016
-209 1037 -188 9 8 -35 192 -50 211 -11 14 -261 107 -325 121 -18 4 -35 13
-38 21 -4 12 74 312 96 368 6 17 31 23 163 42 l156 23 144 -79 c79 -43 154
-87 167 -97 l24 -19 -73 -85 c-40 -46 -116 -128 -168 -181 l-96 -97 24 -101
c27 -114 48 -142 117 -153 74 -12 430 -46 613 -59 242 -16 1018 -16 1260 0
448 31 1003 102 1305 166 39 9 117 25 175 36 449 90 1211 319 1466 440 l101
48 19 67 c19 67 36 87 55 68 7 -7 5 -28 -5 -63 -9 -30 -14 -55 -12 -57 12 -13
570 242 818 373 413 219 775 449 1138 722 277 209 602 488 608 522 5 29 -79
795 -94 855 -27 109 -34 125 -55 125 -23 0 -36 27 -21 42 8 8 6 18 -5 35 -14
20 -14 30 -5 57 14 39 15 66 2 66 -5 0 -13 -8 -19 -17 -5 -10 -13 -14 -17 -10
-4 4 2 20 13 35 18 25 20 35 12 76 -10 54 -6 66 21 66 19 0 30 -19 30 -53 0
-49 19 6 38 113 32 175 81 431 107 565 12 66 35 193 51 283 24 142 30 162 46
162 13 0 25 -14 37 -42 10 -24 56 -134 102 -245 46 -111 86 -200 88 -198 6 6
-81 394 -113 505 -8 25 -18 63 -24 85 -10 37 -66 222 -99 325 -20 64 -81 230
-108 295 -7 17 -25 62 -40 100 -52 133 -64 158 -189 415 -99 202 -171 340
-211 400 -12 19 -42 69 -65 110 -24 41 -70 114 -102 162 -32 48 -58 90 -58 92
0 6 -96 141 -172 245 -55 73 -57 68 -28 -69 11 -52 20 -103 20 -112 0 -27 -39
-23 -44 5 -46 221 -48 230 -35 253 11 21 7 30 -47 101 -51 68 -97 125 -191
238 -119 142 -536 568 -600 613 l-33 23 0 -28 c0 -35 35 -259 86 -546 28 -159
35 -220 27 -228 -16 -16 -31 -3 -38 34 -3 18 -29 172 -59 342 -30 171 -57 340
-61 377 -12 110 -44 146 -332 366 -94 73 -193 147 -220 165 -168 116 -246 167
-251 167 -3 0 -13 7 -22 15 -15 14 -155 45 -455 100 -76 14 -143 31 -147 38
-4 6 -8 35 -8 62 0 28 -3 73 -6 101 l-6 51 -128 61 c-71 34 -131 62 -134 62
-2 0 -44 18 -91 40 -47 22 -90 40 -96 40 -5 0 -17 4 -27 9 -9 5 -28 13 -42 19
-57 22 -157 61 -190 72 -19 7 -44 16 -55 21 -11 4 -45 16 -75 25 -30 9 -94 30
-143 45 -48 16 -96 29 -107 29 -10 0 -21 4 -24 9 -3 5 -18 11 -33 14 -33 6
-107 25 -253 62 -123 32 -116 30 -245 56 -110 22 -103 21 -230 43 -170 30
-155 30 -155 1 0 -14 -7 -28 -15 -31 -8 -3 -62 7 -121 22 -80 21 -108 32 -112
46 -2 10 -17 19 -36 22 -54 9 -295 26 -441 31 l-140 5 -97 -112z m1683 -994
c118 -75 216 -138 218 -140 6 -5 -18 -326 -45 -604 -25 -259 -27 -267 -64
-355 -21 -49 -47 -112 -58 -140 -11 -27 -49 -122 -86 -209 -36 -88 -66 -165
-66 -170 1 -6 72 -85 159 -175 l158 -165 54 45 c30 24 167 139 304 254 137
116 294 248 349 294 56 46 107 89 114 95 7 7 28 73 46 147 19 73 40 137 48
141 16 8 238 58 258 58 21 0 206 -368 192 -382 -6 -6 -89 -6 -256 2 l-247 12
-212 -178 c-117 -98 -314 -264 -438 -369 -343 -289 -449 -375 -464 -375 -7 0
-15 7 -18 15 -6 14 17 35 163 154 30 24 59 48 64 52 4 4 -63 82 -150 174
l-159 167 -66 -6 c-54 -6 -68 -4 -72 8 -8 21 11 33 71 41 50 7 55 10 69 44 25
57 141 336 190 455 47 115 46 111 77 421 25 255 36 390 36 462 l0 68 -113 71
c-61 39 -149 95 -195 124 l-83 54 -237 -13 c-790 -43 -868 -49 -903 -66 -91
-47 -766 -429 -781 -442 -9 -8 -40 -20 -70 -28 -161 -39 -259 -71 -358 -117
-78 -35 -115 -47 -122 -40 -6 6 -8 17 -6 24 9 21 232 113 358 148 166 45 123
23 725 366 l260 147 540 32 c297 18 554 33 571 34 25 1 79 -29 245 -135z
m-897 -701 c2 -10 21 -116 42 -236 32 -185 35 -220 23 -228 -8 -5 -48 -9 -89
-9 -41 -1 -93 -4 -115 -8 l-40 -7 -37 -181 -36 -181 -144 -140 c-109 -107
-176 -163 -281 -234 -103 -69 -140 -90 -149 -81 -14 14 4 62 23 62 7 0 64 35
128 77 83 55 154 114 249 207 l133 131 36 178 c41 202 44 167 -29 421 -21 76
-37 144 -35 150 3 7 45 23 94 36 48 13 111 31 138 41 64 23 83 23 89 2z
m-5172 -633 l223 -140 59 -301 59 -301 221 -206 c433 -405 412 -386 459 -392
23 -3 211 -3 417 0 206 3 380 4 385 2 17 -5 227 -331 220 -342 -16 -26 -42 2
-137 146 l-102 157 -416 -8 -416 -7 -245 229 c-134 125 -285 266 -335 313
l-91 85 -42 210 c-23 116 -47 235 -53 265 -26 129 -22 123 -105 175 -367 229
-340 215 -412 215 -36 0 -90 3 -118 6 -44 6 -53 10 -53 27 0 19 4 20 129 14
l129 -7 224 -140z m8874 -745 c22 -22 25 -32 19 -63 -5 -31 0 -46 28 -90 34
-54 82 -94 275 -227 59 -41 103 -78 106 -90 2 -11 9 -60 15 -110 12 -101 6
-119 -34 -95 -45 28 -334 242 -343 253 -5 7 -14 48 -20 91 -7 44 -17 85 -23
92 -6 8 -49 28 -96 46 -47 18 -88 38 -90 46 -3 8 10 26 30 43 28 23 35 36 35
61 -1 21 6 37 22 50 30 24 46 23 76 -7z m-5561 -57 c0 -9 -95 -97 -215 -198
-288 -244 -295 -251 -292 -272 7 -43 161 -551 169 -559 8 -8 413 27 550 47 65
10 64 -9 -11 -135 -36 -60 -88 -154 -115 -208 l-50 -98 -12 -215 c-7 -118 -16
-220 -21 -227 -5 -6 -16 -9 -25 -6 -12 5 -14 20 -9 92 4 47 9 115 11 151 2 36
7 105 11 155 l7 89 99 174 c55 96 98 175 96 177 -4 4 -446 -40 -511 -51 -27
-4 -85 -42 -219 -144 -200 -153 -188 -140 -396 -454 -87 -129 -104 -148 -124
-128 -8 8 0 27 29 69 22 32 92 135 155 230 l115 172 159 120 c87 66 172 130
187 143 l28 23 -55 190 c-30 105 -70 242 -90 305 -19 63 -32 118 -30 122 2 4
116 102 253 217 136 116 254 218 261 226 16 20 45 15 45 -7z m4252 -252 c55
-106 90 -142 423 -449 l104 -96 22 -143 c79 -508 75 -489 103 -500 14 -6 30
-10 35 -9 5 1 6 -10 4 -24 -7 -32 -16 -33 258 10 219 35 550 60 879 67 l110 3
3 -28 c4 -31 11 -29 -118 -27 -85 1 -98 -1 -120 -20 -21 -19 -25 -19 -28 -6
-3 13 -18 16 -80 16 -171 -1 -436 -21 -592 -45 -229 -35 -350 -57 -350 -62 0
-9 110 -425 141 -534 l31 -107 -36 -203 c-19 -112 -40 -240 -47 -284 -13 -89
-23 -115 -43 -115 -15 0 -29 27 -21 39 2 4 24 127 49 272 36 212 43 274 36
314 -9 55 -131 516 -153 580 l-14 40 -69 7 c-186 18 -368 27 -385 18 -39 -22
-70 17 -44 56 18 28 31 29 71 10 17 -8 98 -19 196 -25 153 -11 169 -11 193 5
24 16 26 21 20 63 -12 88 -85 556 -91 583 -5 26 -91 111 -390 388 -70 64 -89
89 -133 176 -55 107 -62 138 -33 132 10 -2 38 -43 69 -102z m-1040 -308 c6 -7
13 -41 17 -76 3 -34 8 -73 12 -86 5 -20 -11 -39 -95 -121 -55 -54 -103 -106
-106 -115 -3 -9 1 -48 10 -86 8 -38 26 -118 39 -178 l23 -110 -62 -141 c-35
-77 -65 -152 -67 -165 -2 -20 -9 -25 -33 -25 -26 0 -30 4 -33 30 -2 17 -7 34
-11 38 -5 4 -38 -10 -74 -33 l-66 -41 -248 191 c-136 105 -270 210 -298 234
-134 114 -654 554 -678 573 -17 13 -27 29 -25 40 3 17 32 18 466 24 l463 7
102 -62 c143 -87 442 -256 453 -256 5 0 51 42 102 93 l93 94 -11 82 c-6 45 -8
86 -5 91 8 14 21 13 32 -2z m1266 -544 c-4 -10 -9 -12 -15 -6 -12 12 -1 35 12
27 5 -3 6 -13 3 -21z m-270 -79 c-7 -21 -12 -19 -10 4 0 11 5 18 9 15 4 -3 5
-11 1 -19z m-7928 -4 c3 -5 10 -47 16 -93 6 -46 21 -157 33 -248 19 -132 22
-183 15 -255 -4 -49 -17 -214 -29 -365 l-22 -274 52 -237 52 -236 55 -62 c34
-38 53 -67 49 -76 -9 -24 -18 -19 -83 48 l-62 62 -35 165 c-20 91 -45 201 -55
245 l-20 80 30 372 31 373 -32 222 c-17 122 -33 224 -35 227 -6 6 -285 1 -311
-5 -19 -5 -22 -16 -31 -122 -10 -111 -15 -130 -107 -385 -53 -148 -96 -278
-96 -290 0 -12 16 -89 35 -172 29 -124 74 -412 126 -800 5 -38 12 -85 15 -103
6 -30 4 -33 -32 -48 -22 -9 -94 -43 -161 -76 -118 -58 -159 -67 -151 -33 2 8
64 44 138 80 74 36 139 71 144 79 16 23 -66 636 -110 830 -41 182 -43 189 -60
175 -8 -6 -80 -90 -160 -185 -81 -96 -150 -174 -155 -174 -17 0 -22 30 -8 49
8 10 83 100 166 200 84 100 157 191 163 202 6 11 54 140 107 287 l96 267 6
135 6 135 170 3 c94 1 177 4 185 6 30 7 59 6 65 -3z m10531 -332 c15 -24 -27
-37 -181 -53 -88 -10 -167 -22 -175 -26 -8 -5 -58 -112 -110 -239 -67 -164
-99 -231 -111 -231 -8 0 -77 20 -153 45 -76 25 -146 45 -155 45 -9 0 -45 -45
-85 -105 -38 -57 -75 -106 -82 -109 -15 -6 -24 3 -24 22 0 14 145 231 163 243
5 3 68 -13 141 -36 73 -23 144 -45 158 -48 25 -7 28 -1 108 196 46 111 89 216
95 233 l13 31 158 17 c88 10 164 19 169 21 23 8 64 4 71 -6z m-2756 -121 c0
-6 -6 -5 -15 2 -8 7 -15 14 -15 16 0 2 7 1 15 -2 8 -4 15 -11 15 -16z m250
-44 c0 -24 -4 -34 -12 -31 -12 4 -19 43 -11 60 10 19 23 3 23 -29z m-3460 -14
c0 -11 -6 -20 -14 -20 -18 0 -29 16 -21 30 11 18 35 11 35 -10z m2840 -49 c0
-12 -20 -25 -27 -18 -7 7 6 27 18 27 5 0 9 -4 9 -9z m-2671 -132 l126 -130 83
17 c80 16 82 17 82 46 0 19 4 28 13 25 6 -2 11 -14 9 -26 -2 -21 1 -22 30 -15
53 12 71 10 73 -8 3 -18 39 -72 123 -187 l54 -73 122 121 c114 114 156 142
156 105 0 -17 -267 -284 -284 -284 -10 0 -41 40 -140 178 -17 24 -43 57 -57
73 l-26 30 -74 -16 c-41 -9 -99 -21 -130 -27 l-56 -11 -44 49 c-24 27 -84 90
-133 141 -60 62 -87 97 -83 107 4 9 12 16 18 16 7 0 69 -59 138 -131z m5806
65 c0 -10 -8 -20 -17 -22 -18 -3 -26 27 -11 42 12 11 28 0 28 -20z m-3669
-221 c20 -32 48 -75 62 -96 14 -22 31 -68 39 -109 7 -39 14 -73 16 -74 2 -2
32 -7 67 -11 l65 -8 8 -45 c4 -25 13 -91 21 -148 8 -57 16 -106 19 -108 3 -3
74 -26 158 -52 85 -26 159 -50 165 -54 13 -8 64 -147 64 -173 0 -20 -29 -17
-41 5 -5 8 -18 41 -30 73 -24 67 -14 61 -209 118 -81 23 -171 42 -225 46 l-90
8 -11 157 c-7 102 -15 163 -24 175 -8 10 -37 45 -65 78 l-50 59 -6 101 c-4 55
-5 103 -2 108 12 20 37 2 69 -50z m768 -14 c-9 -15 -34 -10 -28 5 3 8 12 12
20 9 8 -3 11 -9 8 -14z m-2484 -55 c0 -14 -12 -19 -23 -8 -9 9 4 35 14 28 5
-3 9 -12 9 -20z m-2933 -19 c0 -8 -9 -15 -19 -15 -10 0 -18 7 -18 15 0 8 8 15
18 15 10 0 19 -7 19 -15z m7603 -9 c0 -3 -4 -8 -10 -11 -5 -3 -10 -1 -10 4 0
6 5 11 10 11 6 0 10 -2 10 -4z m-227 -57 c-8 -8 -14 -6 -22 9 -6 10 -7 22 -4
26 4 4 14 0 22 -9 11 -11 12 -18 4 -26z m935 -23 c2 -11 11 -26 19 -34 20 -21
11 -35 -33 -50 -21 -8 -58 -21 -81 -29 -24 -8 -88 -44 -143 -80 -54 -35 -104
-62 -110 -58 -22 14 -7 36 60 85 39 28 68 55 65 60 -11 17 16 51 38 50 42 -4
53 0 101 40 52 43 78 48 84 16z m-6543 -35 c3 -5 -19 -62 -48 -126 l-53 -116
-99 -76 c-115 -89 -117 -82 41 -138 103 -37 104 -37 216 -31 62 3 227 8 366
10 216 3 254 2 259 -11 3 -8 2 -18 -3 -23 -5 -5 -175 -13 -379 -17 l-370 -8
-130 46 c-71 26 -133 45 -137 43 -21 -13 -158 -494 -158 -556 0 -16 51 -38 88
-38 14 0 16 -9 12 -70 -3 -64 -12 -74 -80 -99 l-62 -23 -36 43 c-57 65 -57 64
-14 117 34 43 42 65 67 178 15 71 52 205 81 298 30 93 54 175 54 182 0 7 37
41 83 75 151 115 158 122 193 192 19 37 32 67 29 67 -3 0 -41 -24 -85 -52 -43
-29 -119 -79 -169 -111 -82 -52 -91 -61 -91 -88 0 -28 -2 -30 -32 -27 -27 3
-33 -1 -38 -22 -7 -32 -50 -42 -50 -12 0 18 -3 18 -40 8 -29 -7 -39 -14 -35
-25 17 -44 -38 -71 -63 -31 -14 23 -83 28 -99 8 -6 -7 -47 -85 -92 -173 -49
-95 -91 -165 -104 -173 -12 -6 -66 -33 -120 -58 l-98 -45 -65 -130 c-35 -72
-69 -154 -75 -182 -12 -64 -37 -251 -34 -255 1 -1 31 -7 66 -13 70 -12 93 -26
80 -48 -7 -11 -22 -11 -97 3 -48 9 -91 19 -95 24 -4 4 1 63 11 132 11 69 19
139 20 156 0 19 32 98 77 189 l77 157 120 58 121 57 78 156 c42 85 77 160 77
165 0 5 -60 36 -132 69 -129 58 -134 61 -160 109 -15 27 -28 54 -28 59 0 15
185 109 199 101 26 -16 7 -38 -64 -73 -41 -21 -75 -43 -75 -50 0 -28 52 -63
165 -113 140 -62 199 -71 274 -45 31 12 53 27 60 41 8 19 16 22 44 17 30 -4
50 5 163 75 71 44 179 114 239 155 107 73 138 87 150 68z m-1091 -47 c4 -11 1
-14 -11 -12 -9 2 -18 9 -21 16 -6 18 25 15 32 -4z m2536 -94 c0 -5 -2 -10 -4
-10 -3 0 -8 5 -11 10 -3 6 -1 10 4 10 6 0 11 -4 11 -10z m1065 -10 c3 -5 1
-10 -4 -10 -6 0 -11 5 -11 10 0 6 2 10 4 10 3 0 8 -4 11 -10z m-1088 -46 c-3
-3 -12 -4 -19 -1 -8 3 -5 6 6 6 11 1 17 -2 13 -5z m849 -418 c7 -44 17 -72 28
-78 9 -5 16 -20 16 -34 0 -13 6 -27 14 -30 13 -5 382 83 439 105 31 12 57 5
57 -14 0 -22 24 -14 -405 -124 -98 -25 -82 -9 -330 -348 -104 -142 -225 -307
-270 -368 -161 -218 -145 -187 -145 -291 l0 -91 58 -6 c153 -16 383 -29 437
-24 89 7 964 221 1010 247 42 23 213 230 433 523 102 136 192 247 199 247 26
0 26 -31 1 -58 -14 -15 -90 -115 -170 -222 -79 -107 -153 -207 -164 -221 -10
-14 -67 -84 -127 -154 -86 -103 -105 -131 -95 -141 7 -6 81 -47 163 -89 83
-43 156 -82 162 -88 15 -11 -3 -24 338 258 339 281 542 436 561 428 30 -11 9
-34 -123 -134 -148 -112 -172 -131 -513 -414 -124 -103 -230 -189 -236 -191
-7 -3 -74 29 -150 70 -77 41 -156 82 -177 91 l-38 15 7 -27 c10 -41 186 -610
257 -829 11 -36 19 -39 252 -100 77 -20 167 -50 200 -67 54 -27 95 -35 395
-79 l335 -49 22 28 c13 15 93 136 180 268 174 266 184 279 199 241 5 -12 -334
-536 -370 -573 -8 -8 -94 1 -356 38 -323 46 -350 51 -420 84 -78 37 -392 125
-444 125 -24 0 -994 -262 -1198 -324 -35 -10 -50 -11 -56 -2 -5 6 -28 217 -51
468 -43 462 -54 564 -62 572 -5 5 -193 22 -351 32 l-106 6 10 -41 c9 -36 4
-64 -43 -247 l-54 -206 -89 -45 c-87 -44 -116 -48 -116 -18 0 10 30 30 83 54
l84 39 43 163 c48 179 56 259 28 302 -10 14 -113 82 -240 158 -123 73 -333
205 -468 294 -235 155 -287 189 -482 314 -82 53 -106 82 -75 94 6 2 77 -39
157 -92 507 -336 612 -401 628 -389 8 7 46 52 83 100 50 65 77 113 104 183 37
95 37 95 19 123 -11 16 -77 110 -148 209 l-128 181 -162 41 c-178 46 -206 56
-206 71 0 24 38 19 213 -26 l184 -49 59 -84 c48 -68 139 -196 240 -338 15 -21
14 -29 -25 -132 -32 -87 -55 -128 -116 -209 -41 -55 -75 -104 -75 -109 0 -5
98 -68 218 -140 l217 -131 8 94 7 94 84 113 c117 158 463 629 518 707 l46 65
-84 98 c-78 89 -92 117 -61 117 6 0 29 -17 50 -37 l39 -38 -6 51 c-7 53 -2 67
23 62 11 -2 19 -25 27 -72z m3655 -498 c24 -18 82 -64 129 -103 47 -39 102
-83 123 -99 20 -16 37 -35 37 -43 0 -35 -35 -19 -140 66 -61 50 -116 91 -120
91 -5 0 -30 -10 -55 -22 l-45 -22 -62 20 c-43 14 -63 25 -63 36 0 18 111 106
136 107 8 1 35 -13 60 -31z m-5630 -589 c25 -46 78 -144 117 -216 40 -73 72
-137 72 -143 0 -6 -7 -13 -15 -17 -21 -7 -380 344 -380 371 0 13 21 31 70 57
39 21 75 37 80 35 6 -1 31 -40 56 -87z m-2441 -233 c0 -3 -4 -8 -10 -11 -5 -3
-10 -1 -10 4 0 6 5 11 10 11 6 0 10 -2 10 -4z m7807 -22 c3 -9 -6 -28 -26 -48
l-31 -32 75 -194 c56 -148 71 -197 63 -208 -19 -22 -33 2 -104 188 -36 96 -71
187 -77 202 -10 25 -8 31 28 68 42 43 62 50 72 24z m-4513 -266 c-6 -213 -5
-229 19 -347 14 -69 24 -128 22 -131 -2 -4 -81 -101 -176 -216 -102 -125 -195
-249 -230 -309 -32 -55 -89 -153 -126 -218 -37 -64 -141 -217 -230 -340 -89
-122 -163 -226 -163 -230 0 -5 21 -5 48 -2 36 5 75 25 172 90 123 81 129 84
245 110 66 15 188 51 270 81 197 72 325 94 535 94 106 0 300 13 596 41 372 34
472 41 657 39 l218 -1 105 55 c58 31 113 56 122 56 9 0 51 -8 94 -17 l78 -16
41 -64 c23 -35 47 -63 54 -63 6 0 63 25 124 55 62 30 117 53 122 50 27 -17 -1
-40 -120 -100 l-130 -64 -82 -105 -82 -105 -56 -6 c-31 -4 -103 -12 -161 -19
l-105 -13 -62 60 c-35 34 -63 67 -63 73 0 7 19 47 41 89 23 42 39 78 37 81 -3
2 -81 7 -174 10 -150 5 -218 1 -614 -36 -245 -23 -544 -46 -665 -50 -257 -9
-312 -19 -521 -94 -82 -30 -196 -64 -253 -76 -101 -21 -109 -25 -226 -104
-114 -78 -125 -84 -198 -94 -104 -16 -127 -15 -127 3 0 8 58 92 128 187 200
270 217 296 347 521 125 216 139 235 359 507 142 175 132 141 95 312 -12 60
-34 120 -69 186 -27 54 -50 103 -50 109 0 6 28 61 61 122 44 80 67 111 80 111
18 0 19 -10 13 -222z m-2564 183 c14 -28 13 -38 -10 -61 -22 -22 -79 -27 -98
-8 -25 25 -14 55 26 71 51 21 70 20 82 -2z m1017 -94 c43 -24 150 -84 238
-134 88 -50 208 -117 266 -149 92 -52 119 -73 216 -174 l110 -115 6 -60 c6
-62 -1 -82 -26 -72 -9 3 -17 28 -22 64 -7 57 -9 60 -104 156 -106 109 -105
108 -523 342 -191 107 -268 155 -268 168 0 26 23 21 107 -26z m-1987 -363 c0
-8 -4 -12 -10 -9 -5 3 -10 10 -10 16 0 5 5 9 10 9 6 0 10 -7 10 -16z m3670
-160 c0 -8 -4 -14 -10 -14 -5 0 -10 9 -10 21 0 11 5 17 10 14 6 -3 10 -13 10
-21z"/>
<path d="M10450 12148 c-47 -11 -90 -25 -97 -32 -11 -10 -67 -215 -61 -221 6
-7 418 -17 418 -11 0 3 -32 69 -70 146 -51 102 -75 140 -88 139 -9 0 -55 -10
-102 -21z"/>
<path d="M8180 12385 c-25 -8 -69 -20 -99 -29 -29 -8 -55 -17 -57 -19 -2 -2 2
-23 10 -48 8 -24 29 -97 47 -163 l34 -119 99 7 c55 3 102 8 104 11 3 2 -10 88
-28 190 -36 204 -30 194 -110 170z"/>
<path d="M11921 10947 c-8 -11 -3 -17 25 -31 44 -20 52 -15 30 19 -18 28 -38
32 -55 12z"/>
<path d="M12083 10768 c3 -13 9 -39 12 -60 4 -20 17 -45 28 -56 53 -48 262
-192 265 -182 2 6 1 35 -2 64 l-7 53 -144 101 c-79 56 -147 102 -151 102 -3 0
-4 -10 -1 -22z"/>
<path d="M8145 10350 l-109 -5 113 -95 c120 -101 169 -142 272 -230 201 -171
252 -211 259 -203 13 13 150 500 150 531 0 12 -48 13 -287 10 -159 -1 -337 -5
-398 -8z"/>
<path d="M8877 10328 c-3 -13 -26 -95 -52 -183 -25 -88 -59 -209 -75 -268
l-29 -108 77 -60 c42 -33 124 -97 182 -143 152 -120 216 -166 226 -166 5 0 40
20 78 44 68 43 96 49 96 20 0 -34 19 -6 68 102 l52 116 -40 176 c-28 123 -45
181 -57 190 -10 7 -70 42 -133 79 -63 36 -151 87 -195 113 -44 26 -105 61
-136 79 l-57 31 -5 -22z m303 -532 c0 -2 -3 -12 -6 -20 -5 -13 -9 -14 -20 -5
-16 13 -9 29 12 29 8 0 14 -2 14 -4z"/>
<path d="M9570 8877 c0 -23 54 -117 67 -117 10 0 -14 60 -38 100 -28 43 -29
44 -29 17z"/>
<path d="M9707 8543 c2 -54 6 -113 9 -130 5 -33 6 -33 60 -33 l56 0 -6 38 c-3
20 -10 76 -16 123 -12 85 -12 87 -42 93 -66 13 -64 16 -61 -91z"/>
<path d="M6162 7667 c-23 -24 -23 -26 -7 -51 29 -45 100 -26 108 28 2 17 3 33
2 34 -2 2 -21 6 -42 9 -31 4 -42 1 -61 -20z"/>
<path d="M9800 7013 c-36 -8 -202 -48 -370 -89 -168 -41 -352 -86 -410 -100
-58 -14 -111 -28 -117 -32 -9 -6 -7 -59 7 -212 11 -113 32 -333 46 -490 15
-157 30 -289 34 -293 9 -10 1155 305 1173 323 9 8 -5 59 -90 330 -134 432
-185 580 -196 579 -7 0 -41 -8 -77 -16z"/>
<path d="M12535 7606 l-30 -24 25 -7 c14 -3 40 0 58 8 l33 14 -25 16 c-31 21
-25 22 -61 -7z"/>
<path d="M6882 7068 l-34 -21 106 -106 c58 -58 107 -103 109 -101 6 7 -126
243 -138 246 -5 1 -25 -7 -43 -18z"/>
<path d="M7776 6584 l-29 -55 23 -50 c13 -27 27 -46 32 -41 5 5 7 52 6 105
l-3 97 -29 -56z"/>
<path d="M9822 5207 l-93 -52 -44 -86 -44 -86 42 -47 42 -47 75 10 c41 6 106
13 143 17 l68 6 65 81 c91 114 88 104 45 173 -35 56 -42 61 -90 72 -84 19
-109 14 -209 -41z"/>
<path d="M8369 14185 c25 -8 47 -13 49 -10 9 9 -2 13 -48 19 l-45 5 44 -14z"/>
<path d="M5802 13533 c-159 -212 -159 -211 -244 -326 -43 -58 -78 -107 -78
-110 0 -8 163 -120 264 -182 l79 -49 21 27 c12 14 53 79 92 144 204 336 259
422 297 463 24 25 53 57 66 71 l23 27 -134 31 c-73 17 -151 33 -173 36 -22 3
-54 8 -71 11 -29 4 -35 -3 -142 -143z"/>
<path d="M10553 13446 c3 -43 8 -80 10 -82 6 -7 401 -83 405 -79 3 3 -62 42
-173 105 -22 13 -87 48 -144 78 l-104 55 6 -77z"/>
<path d="M5429 13003 c-41 -95 -248 -591 -277 -664 -26 -64 -35 -117 -66 -374
-20 -165 -41 -329 -45 -365 -5 -36 -7 -66 -6 -68 1 -1 16 19 32 45 184 293
296 480 497 828 188 325 234 412 224 421 -11 10 -290 197 -326 218 -8 5 -19
-8 -33 -41z"/>
<path d="M4795 9573 c-61 -54 -146 -129 -190 -167 -44 -38 -108 -95 -143 -127
l-63 -57 63 -49 c175 -134 315 -233 328 -230 9 1 18 20 22 47 20 110 98 665
95 673 -1 4 -52 -36 -112 -90z"/>
<path d="M4146 8971 l-217 -217 -9 -219 c-5 -121 -12 -325 -16 -453 l-7 -234
139 6 c273 11 392 19 403 25 10 7 84 198 200 518 23 62 63 183 89 270 43 139
47 160 36 182 -7 13 -11 28 -8 32 4 7 -206 174 -337 268 l-56 40 -217 -218z
m64 -865 c0 -17 -14 -29 -23 -20 -8 8 3 34 14 34 5 0 9 -6 9 -14z m-275 -176
c3 -5 2 -10 -4 -10 -5 0 -13 5 -16 10 -3 6 -2 10 4 10 5 0 13 -4 16 -10z"/>
<path d="M13897 9038 c-14 -72 -32 -169 -67 -373 -5 -27 -34 -187 -64 -355
-31 -168 -57 -315 -59 -328 -8 -42 19 -46 276 -39 132 3 242 8 245 11 7 8 -16
258 -39 425 l-20 144 -121 286 c-66 157 -123 292 -127 299 -5 8 -15 -20 -24
-70z"/>
<path d="M4771 8636 c-23 -70 -41 -135 -39 -144 2 -10 22 10 55 54 l52 70 -13
75 -12 74 -43 -129z"/>
<path d="M13790 7893 c-36 -2 -69 -8 -74 -13 -5 -5 4 -65 22 -147 23 -102 41
-233 67 -498 19 -198 35 -364 35 -369 0 -6 14 3 31 20 31 28 151 264 308 604
65 140 67 148 65 215 -1 39 -3 98 -3 133 l-1 62 -192 -2 c-106 -1 -222 -3
-258 -5z"/>
<path d="M14179 7383 c-35 -76 -90 -189 -122 -252 -32 -62 -56 -115 -55 -117
2 -1 59 55 126 127 l123 130 -2 124 c0 69 -2 125 -4 125 -1 0 -31 -62 -66
-137z"/>
<path d="M760 7200 c0 -31 6 -39 50 -69 28 -19 53 -31 57 -28 3 4 -16 30 -42
59 -27 29 -52 57 -57 63 -4 5 -8 -6 -8 -25z"/>
<path d="M14102 7090 c-125 -131 -136 -146 -192 -260 -47 -94 -64 -120 -80
-120 -17 0 -20 7 -20 40 0 22 -3 40 -7 40 -5 0 -87 -68 -183 -151 -530 -455
-1010 -776 -1690 -1131 -146 -76 -262 -138 -257 -138 4 0 171 -22 372 -50 201
-27 382 -50 402 -50 33 0 177 21 653 96 349 55 364 56 358 25 -2 -12 -24 -19
-83 -28 -605 -92 -883 -137 -898 -147 -17 -10 -102 -156 -212 -361 -93 -175
-368 -671 -376 -680 -6 -6 -14 -4 -23 5 -13 13 3 47 120 260 330 598 424 774
417 781 -4 4 -143 26 -308 48 -420 57 -411 56 -418 38 -3 -9 -13 -80 -22 -159
-8 -79 -20 -172 -25 -208 -5 -36 -14 -120 -21 -187 -11 -120 -22 -150 -47
-134 -9 5 -3 79 23 311 19 168 35 318 35 333 0 35 -2 34 -143 -76 l-108 -85
-77 24 c-93 29 -92 29 -152 3 -59 -25 -45 6 -184 -424 l-104 -320 -188 -102
c-329 -178 -306 -162 -299 -206 5 -38 176 -684 216 -820 22 -73 19 -101 -7
-95 -12 2 -25 34 -44 110 -15 59 -63 239 -106 399 l-79 291 -8 -68 c-5 -47 -4
-78 4 -97 9 -22 9 -31 0 -36 -8 -5 -15 -92 -23 -280 -7 -149 -15 -277 -19
-283 -4 -6 -15 -8 -24 -4 -16 6 -17 17 -11 94 3 48 10 213 16 367 6 154 12
300 15 325 3 27 2 40 -4 35 -13 -14 -381 -665 -392 -692 -10 -26 -37 -31 -45
-9 -3 8 32 82 79 163 170 298 316 559 343 615 22 46 35 60 68 74 60 27 449
235 463 248 12 11 236 687 230 693 -2 2 -79 -24 -171 -57 -620 -221 -1276
-381 -1946 -474 -450 -63 -766 -86 -1275 -93 -512 -6 -884 10 -1290 57 -49 5
-94 10 -99 10 -5 0 61 -53 145 -117 136 -104 187 -153 432 -410 l277 -292 127
34 c71 19 200 54 287 78 l159 45 146 -66 c132 -60 152 -66 206 -65 52 2 949
164 988 179 7 2 19 -2 26 -9 9 -12 -34 -86 -228 -393 -132 -209 -246 -387
-253 -396 -12 -16 -21 -17 -128 -3 -63 7 -344 34 -625 60 -280 25 -525 49
-543 53 -34 7 -34 7 -106 212 -40 113 -78 215 -84 227 -6 11 -135 151 -285
310 -256 271 -283 296 -454 425 l-181 137 -299 50 c-884 147 -1605 360 -2378
701 -128 57 -568 272 -675 330 -30 17 -56 26 -58 22 -1 -5 15 -60 37 -123 28
-83 44 -151 56 -249 42 -338 53 -402 75 -424 39 -42 16 -96 -40 -96 -21 0 -35
8 -47 26 -16 25 -16 28 0 57 15 26 16 40 7 106 -6 42 -19 156 -31 255 -20 176
-36 246 -82 359 -30 73 -37 79 -37 35 0 -53 -41 -60 -80 -14 -19 24 -73 20
-98 -6 -20 -22 -90 -142 -171 -292 -34 -63 -127 -235 -150 -276 -4 -8 -15 -16
-23 -18 -33 -6 -25 31 26 120 126 219 267 486 275 518 5 19 12 69 15 111 l6
76 -138 89 c-486 313 -858 602 -1244 966 -81 76 -150 133 -168 138 -16 5 -30
5 -30 1 0 -7 284 -686 417 -996 19 -44 48 -114 64 -156 l31 -77 137 -51 c75
-28 142 -55 150 -59 21 -12 25 -31 8 -38 -20 -7 -330 110 -336 128 -8 26 -511
1219 -526 1247 -19 37 -76 86 -84 72 -6 -9 4 -154 23 -351 9 -88 46 -336 67
-445 88 -470 200 -860 377 -1310 149 -381 394 -849 620 -1187 155 -232 232
-340 252 -358 4 -3 35 -43 70 -90 259 -345 666 -764 1040 -1070 30 -25 60 -48
65 -52 6 -4 31 -25 57 -45 113 -92 467 -343 483 -343 2 0 34 -21 72 -47 64
-43 189 -120 223 -136 8 -4 31 -17 50 -28 117 -72 369 -198 625 -313 28 -13
115 -49 195 -81 80 -31 154 -61 165 -66 43 -17 234 -81 300 -100 39 -11 90
-27 115 -36 174 -59 720 -186 735 -171 3 3 -49 121 -116 262 l-122 256 -46 -1
c-25 0 -104 -4 -176 -8 l-130 -8 -214 -106 c-183 -91 -217 -105 -232 -94 -321
231 -399 291 -414 314 -10 15 -75 102 -144 192 l-126 164 -309 153 c-304 152
-309 154 -375 154 -36 0 -71 4 -76 8 -6 4 -73 92 -149 196 -99 135 -136 194
-130 204 5 7 86 44 179 81 94 37 330 134 525 214 306 126 538 209 630 224 14
3 95 -9 181 -26 140 -27 163 -35 239 -79 47 -27 126 -70 176 -97 l92 -49 177
169 c98 93 179 174 181 180 2 5 10 86 18 178 l14 169 -109 191 c-60 106 -112
197 -116 204 -7 9 -627 92 -896 119 l-67 6 -39 -84 -39 -85 -134 -26 c-73 -15
-139 -27 -146 -27 -15 0 -18 6 -88 205 -30 88 -77 220 -104 292 l-48 133 -216
224 -217 224 -92 40 c-88 39 -99 41 -275 56 -101 9 -207 16 -236 16 -30 0 -61
6 -72 14 -19 15 -19 15 3 37 16 16 26 20 35 12 14 -10 160 -28 358 -43 101 -7
124 -12 192 -44 42 -20 81 -36 86 -36 5 0 114 -107 242 -237 l233 -238 52
-150 c129 -369 161 -450 181 -453 10 -1 64 8 119 20 l99 23 36 82 c19 45 38
85 42 88 8 8 166 -9 728 -81 107 -13 217 -27 243 -30 44 -5 49 -9 69 -47 11
-23 66 -121 121 -217 l100 -175 -17 -193 -17 -192 -117 -113 c-64 -61 -151
-145 -193 -184 -41 -40 -81 -73 -89 -73 -7 0 -61 26 -119 59 -262 145 -252
140 -407 171 l-146 29 -131 -39 c-73 -21 -204 -68 -292 -103 -389 -156 -861
-350 -868 -357 -4 -4 47 -82 114 -173 l123 -167 59 0 c64 0 46 8 516 -224
l194 -96 119 -156 c64 -86 134 -176 153 -200 40 -48 385 -304 410 -304 9 0
105 45 213 99 l197 100 190 9 c105 5 193 7 197 3 3 -3 65 -130 138 -281 72
-151 136 -280 143 -286 12 -12 220 -47 352 -60 39 -3 86 -8 105 -10 155 -16
316 -25 491 -30 l206 -5 17 143 c9 79 16 153 16 164 0 12 6 27 14 33 11 9 53
-14 197 -107 101 -65 201 -128 222 -141 l38 -24 87 39 c48 21 237 111 421 201
l333 163 144 -129 143 -129 58 13 c227 48 757 235 1039 365 47 22 87 40 90 40
7 0 193 93 264 132 36 20 94 51 130 70 109 58 232 129 285 163 195 126 355
233 385 255 19 15 87 65 150 112 63 47 126 94 140 106 44 37 126 106 156 132
l29 25 -30 3 c-17 2 -127 -6 -246 -17 -207 -20 -223 -23 -444 -86 -185 -53
-238 -65 -272 -60 -23 3 -46 11 -51 18 -5 7 -13 57 -17 112 -6 77 -12 107 -28
129 -24 33 -15 57 23 63 13 2 100 65 193 141 93 75 175 141 182 146 8 6 74
-27 206 -104 342 -200 482 -280 490 -280 4 0 63 36 131 81 106 70 149 107 307
268 101 102 201 209 223 236 22 28 60 73 84 100 93 106 177 211 294 370 32 44
70 96 85 114 31 42 32 42 -100 71 -68 14 -109 29 -130 46 -108 87 -437 368
-474 403 -24 23 -24 24 -6 37 12 9 45 14 88 14 62 0 90 8 256 71 102 39 267
98 366 131 213 72 144 14 596 504 135 146 198 222 208 250 7 21 28 80 46 129
55 152 141 433 173 565 17 69 38 157 47 195 51 212 90 456 130 810 15 136 31
395 24 395 -2 0 -64 -63 -137 -140z m-11555 -1766 c3 -8 2 -39 -3 -67 -9 -49
-11 -52 -39 -52 -39 0 -43 21 -14 85 23 50 44 64 56 34z m-753 -589 c69 -10
116 -22 130 -33 173 -139 170 -136 295 -335 66 -106 126 -200 133 -210 12 -16
36 -19 211 -24 166 -5 197 -4 193 8 -48 146 -86 293 -78 301 20 20 39 -1 56
-64 10 -34 25 -85 34 -113 l16 -50 7 45 c4 25 8 63 8 86 1 49 23 85 42 67 9
-9 8 -44 -5 -160 -20 -172 -20 -172 75 -675 20 -105 19 -132 -4 -126 -7 2
-120 75 -252 162 l-239 159 -111 -6 c-60 -4 -146 -10 -190 -13 l-80 -6 -72
115 c-40 63 -73 122 -73 131 0 40 36 8 98 -89 l67 -105 50 0 c28 0 111 5 185
11 l135 12 220 -148 c120 -81 221 -143 223 -137 2 6 -16 113 -39 239 -23 125
-44 240 -46 255 -3 15 -11 32 -18 38 -7 6 -103 13 -220 18 l-208 7 -128 205
c-104 166 -141 217 -196 268 -111 102 -125 109 -241 125 -102 14 -131 25 -118
46 9 14 12 14 140 -4z m1216 -5 c0 -13 -7 -20 -20 -20 -13 0 -20 7 -20 20 0
13 7 20 20 20 13 0 20 -7 20 -20z m7043 -2397 c204 -92 327 -153 327 -161 0
-13 -302 -473 -337 -514 -16 -17 -43 -14 -43 6 0 6 74 119 164 251 90 132 161
243 157 246 -3 4 -139 66 -301 139 l-295 133 -250 -37 c-137 -20 -306 -46
-375 -57 -204 -32 -864 -129 -878 -129 -22 0 -13 39 11 44 12 3 209 32 437 66
228 33 474 70 545 81 234 37 490 76 500 78 6 1 157 -65 338 -146z m-4430 -105
c145 -96 247 -158 262 -158 23 0 473 90 800 160 136 29 164 29 152 -2 -3 -9
-161 -46 -483 -111 -264 -54 -482 -97 -487 -97 -7 0 -504 325 -521 341 -12 11
13 41 28 32 6 -4 118 -78 249 -165z"/>
<path d="M13857 6853 c-4 -3 -7 -13 -7 -22 1 -13 3 -13 11 2 11 19 8 33 -4 20z"/>
<path d="M2641 6527 c14 -12 100 -87 190 -166 127 -112 165 -141 167 -127 4
21 -13 154 -30 233 -12 59 -1 55 -208 73 -153 13 -150 13 -119 -13z"/>
<path d="M2567 6513 c-3 -5 -10 -120 -16 -258 -6 -137 -13 -289 -16 -336 l-6
-86 33 -25 c26 -20 98 -61 149 -86 6 -3 255 352 278 396 16 30 20 26 -202 220
-198 173 -214 186 -220 175z"/>
<path d="M2532 5730 c1 -60 4 -70 17 -65 9 4 27 8 41 10 14 2 42 7 63 10 20 3
37 10 37 14 0 7 -78 57 -153 98 -4 2 -6 -28 -5 -67z"/>
<path d="M11435 5274 c-82 -36 -159 -69 -170 -74 -18 -7 -18 -9 10 -20 79 -31
85 -29 204 64 96 75 120 97 109 96 -2 0 -70 -30 -153 -66z"/>
<path d="M5958 5311 c-59 -9 -112 -20 -117 -26 -5 -5 -28 -77 -50 -159 -31
-111 -38 -152 -29 -157 6 -4 81 -31 165 -59 l153 -52 37 30 c44 35 111 104
207 214 l67 76 -138 76 c-77 42 -149 75 -163 75 -14 -1 -73 -9 -132 -18z"/>
<path d="M13674 4887 c-39 -40 -153 -162 -254 -272 l-183 -200 -216 -76 c-119
-41 -288 -103 -376 -136 -88 -34 -184 -65 -213 -69 l-52 -9 161 -135 c318
-267 278 -239 403 -271 61 -16 114 -29 117 -29 8 0 189 263 189 275 0 2 23 40
50 85 28 45 50 83 50 85 0 2 16 32 36 67 31 55 93 171 154 288 34 66 120 247
120 254 0 4 21 52 46 107 25 55 44 102 42 104 -2 3 -36 -28 -74 -68z"/>
<path d="M8650 3819 c-168 -32 -382 -73 -476 -90 l-171 -32 -162 72 -163 72
-221 -61 c-269 -74 -317 -89 -317 -100 0 -7 68 -209 115 -342 l16 -47 67 -5
c37 -3 108 -11 157 -16 50 -5 214 -21 365 -35 151 -14 363 -34 470 -44 181
-17 196 -18 212 -2 17 16 425 652 435 678 7 17 22 19 -327 -48z"/>
<path d="M11085 2679 c-70 -56 -148 -121 -173 -145 l-47 -42 2 -83 c3 -123 9
-146 38 -151 14 -3 121 23 242 59 204 60 230 65 413 83 107 11 209 19 225 20
29 1 29 1 10 16 -11 8 -132 81 -270 161 -137 80 -264 154 -282 165 l-32 19
-126 -102z"/>
<path d="M8575 1024 c-154 -75 -308 -149 -342 -165 -35 -15 -63 -30 -63 -32 0
-2 73 5 163 14 89 10 239 25 332 34 176 18 287 34 389 57 l59 13 -121 108
c-66 59 -124 107 -129 107 -4 0 -134 -61 -288 -136z"/>
<path d="M7591 923 c-6 -59 -14 -123 -18 -142 l-6 -34 164 8 c90 4 175 9 189
10 14 1 38 3 55 4 25 1 27 3 15 15 -18 17 -352 234 -373 242 -11 4 -16 -16
-26 -103z"/>
</g>
</svg>
